<?xml version="1.0" encoding="UTF-8"?>
<svg width="275px" height="140px" viewBox="0 0 275 140" version="1.1" xmlns="http://www.w3.org/2000/svg" xmlns:xlink="http://www.w3.org/1999/xlink">
    <!-- Generator: Sketch 49.2 (51160) - http://www.bohemiancoding.com/sketch -->
    <title>20</title>
    <desc>Created with Sketch.</desc>
    <defs></defs>
    <g id="Page-1" stroke="none" stroke-width="1" fill="none" fill-rule="evenodd">
        <g id="图标切图" transform="translate(-15.000000, -770.000000)">
            <g id="20" transform="translate(15.000000, 770.000000)">
                <rect id="Rectangle" fill="#FFFFFF" opacity="0.01" x="0" y="0" width="275" height="140"></rect>
                <path d="M119.054306,42.0360323 L114.254452,40.8365161 C117.507468,38.2065323 119.596774,34.1908387 119.596774,29.6935484 L119.596774,24.3225806 C119.596774,16.4254677 113.171306,10 105.274194,10 C97.3770806,10 90.9516129,16.4254677 90.9516129,24.3225806 L90.9516129,29.6935484 C90.9516129,34.1908387 93.0409194,38.2065323 96.2939355,40.8347258 L91.4940806,42.0342419 C85.9046935,43.4324839 82,48.4328548 82,54.1941129 L82,70.8709677 L82,72.6612903 L82,78.0322581 C82,80.9934516 84.4097742,83.4032258 87.3709677,83.4032258 L90.9516129,83.4032258 L90.9516129,121 L119.596774,121 L119.596774,83.4032258 L123.177419,83.4032258 C126.138613,83.4032258 128.548387,80.9934516 128.548387,78.0322581 L128.548387,72.6612903 L128.548387,70.8709677 L128.548387,54.1941129 C128.548387,48.4328548 124.643694,43.4324839 119.054306,42.0360323 Z M94.5322581,29.6935484 L94.5322581,24.3225806 C94.5322581,18.3984032 99.3500161,13.5806452 105.274194,13.5806452 C111.198371,13.5806452 116.016129,18.3984032 116.016129,24.3225806 L116.016129,29.6935484 C116.016129,35.6177258 111.198371,40.4354839 105.274194,40.4354839 C99.3500161,40.4354839 94.5322581,35.6177258 94.5322581,29.6935484 Z M110.381984,43.0583065 L110.211903,43.7422097 C109.642581,46.0123387 107.614145,47.5967742 105.274194,47.5967742 C102.934242,47.5967742 100.905806,46.0123387 100.336484,43.7422097 L100.166403,43.0583065 C101.754419,43.6670161 103.473129,44.016129 105.274194,44.016129 C107.075258,44.016129 108.793968,43.6670161 110.381984,43.0583065 Z M90.9516129,79.8225806 L87.3709677,79.8225806 C86.3827097,79.8225806 85.5806452,79.0187258 85.5806452,78.0322581 L85.5806452,72.6612903 L90.9516129,72.6612903 L90.9516129,79.8225806 Z M103.483871,117.419355 L94.5322581,117.419355 L94.5322581,113.83871 L103.483871,113.83871 L103.483871,117.419355 Z M116.016129,117.419355 L107.064516,117.419355 L107.064516,113.83871 L116.016129,113.83871 L116.016129,117.419355 Z M124.967742,78.0322581 C124.967742,79.0187258 124.165677,79.8225806 123.177419,79.8225806 L119.596774,79.8225806 L119.596774,72.6612903 L124.967742,72.6612903 L124.967742,78.0322581 Z M124.967742,69.0806452 L119.596774,69.0806452 L119.596774,57.3164355 L116.016129,57.3164355 L116.016129,70.8709677 L116.016129,72.6612903 L112.435484,72.6612903 L112.435484,76.2419355 L116.016129,76.2419355 L116.016129,81.6129032 L116.016129,83.4032258 L116.016129,110.258065 L107.064516,110.258065 L107.064516,83.4032258 L103.483871,83.4032258 L103.483871,110.258065 L94.5322581,110.258065 L94.5322581,83.4032258 L94.5322581,81.6129032 L94.5322581,76.2419355 L108.854839,76.2419355 L108.854839,72.6612903 L94.5322581,72.6612903 L94.5322581,70.8709677 L94.5322581,57.3164355 L90.9516129,57.3164355 L90.9516129,69.0806452 L85.5806452,69.0806452 L85.5806452,54.1941129 C85.5806452,50.0799516 88.3699677,46.5082581 92.3605968,45.5092581 L96.8095484,44.3974677 L96.8632581,44.6105161 C97.8300323,48.4776129 101.288935,51.1774194 105.274194,51.1774194 C109.259452,51.1774194 112.718355,48.4776129 113.683339,44.6105161 L113.737048,44.3974677 L118.186,45.5092581 C122.178419,46.5082581 124.967742,50.0781613 124.967742,54.1941129 L124.967742,69.0806452 Z M184.048387,33.2741935 C179.726548,33.2741935 176.110097,30.1930484 175.277597,26.1129032 L132.129032,26.1129032 L132.129032,22.5322581 L175.277597,22.5322581 C176.110097,18.4521129 179.726548,15.3709677 184.048387,15.3709677 C188.984306,15.3709677 193,19.3866613 193,24.3225806 C193,29.2585 188.984306,33.2741935 184.048387,33.2741935 Z M184.048387,18.9516129 C181.087194,18.9516129 178.677419,21.3613871 178.677419,24.3225806 C178.677419,27.2837742 181.087194,29.6935484 184.048387,29.6935484 C187.009581,29.6935484 189.419355,27.2837742 189.419355,24.3225806 C189.419355,21.3613871 187.009581,18.9516129 184.048387,18.9516129 Z M184.048387,51.1774194 C188.984306,51.1774194 193,55.1931129 193,60.1290323 C193,65.0649516 188.984306,69.0806452 184.048387,69.0806452 C179.724758,69.0806452 176.110097,65.9995 175.277597,61.9193548 L132.129032,61.9193548 L132.129032,58.3387097 L175.277597,58.3387097 C176.110097,54.2585645 179.726548,51.1774194 184.048387,51.1774194 Z M184.048387,65.5 C187.009581,65.5 189.419355,63.0902258 189.419355,60.1290323 C189.419355,57.1678387 187.009581,54.7580645 184.048387,54.7580645 C181.087194,54.7580645 178.677419,57.1678387 178.677419,60.1290323 C178.677419,63.0902258 181.087194,65.5 184.048387,65.5 Z M184.048387,86.983871 C188.984306,86.983871 193,90.9995645 193,95.9354839 C193,100.871403 188.984306,104.887097 184.048387,104.887097 C179.724758,104.887097 176.110097,101.805952 175.277597,97.7258065 L132.129032,97.7258065 L132.129032,94.1451613 L175.277597,94.1451613 C176.110097,90.0650161 179.726548,86.983871 184.048387,86.983871 Z M184.048387,101.306452 C187.009581,101.306452 189.419355,98.8966774 189.419355,95.9354839 C189.419355,92.9742903 187.009581,90.5645161 184.048387,90.5645161 C181.087194,90.5645161 178.677419,92.9742903 178.677419,95.9354839 C178.677419,98.8966774 181.087194,101.306452 184.048387,101.306452 Z M164.354839,65.5 L167.935484,65.5 L167.935484,69.0806452 L164.354839,69.0806452 L164.354839,65.5 Z M132.129032,65.5 L160.774194,65.5 L160.774194,69.0806452 L132.129032,69.0806452 L132.129032,65.5 Z M164.354839,101.306452 L167.935484,101.306452 L167.935484,104.887097 L164.354839,104.887097 L164.354839,101.306452 Z M132.129032,101.306452 L160.774194,101.306452 L160.774194,104.887097 L132.129032,104.887097 L132.129032,101.306452 Z M164.354839,29.6935484 L167.935484,29.6935484 L167.935484,33.2741935 L164.354839,33.2741935 L164.354839,29.6935484 Z M132.129032,29.6935484 L160.774194,29.6935484 L160.774194,33.2741935 L132.129032,33.2741935 L132.129032,29.6935484 Z" id="smartphone-2" fill="#FC384C" fill-rule="nonzero"></path>
            </g>
        </g>
    </g>
</svg>