<?xml version="1.0" encoding="UTF-8"?>
<svg width="404px" height="604px" viewBox="0 0 404 604" version="1.1" xmlns="http://www.w3.org/2000/svg" xmlns:xlink="http://www.w3.org/1999/xlink">
    <!-- Generator: Sketch 49.2 (51160) - http://www.bohemiancoding.com/sketch -->
    <title>listen_img</title>
    <desc>Created with Sketch.</desc>
    <defs>
        <filter x="-1.8%" y="-0.8%" width="103.5%" height="102.3%" filterUnits="objectBoundingBox" id="filter-1">
            <feOffset dx="0" dy="2" in="SourceAlpha" result="shadowOffsetOuter1"></feOffset>
            <feGaussianBlur stdDeviation="2" in="shadowOffsetOuter1" result="shadowBlurOuter1"></feGaussianBlur>
            <feColorMatrix values="0 0 0 0 0   0 0 0 0 0   0 0 0 0 0  0 0 0 0.5 0" type="matrix" in="shadowBlurOuter1" result="shadowMatrixOuter1"></feColorMatrix>
            <feMerge>
                <feMergeNode in="shadowMatrixOuter1"></feMergeNode>
                <feMergeNode in="SourceGraphic"></feMergeNode>
            </feMerge>
        </filter>
    </defs>
    <g id="Page-1" stroke="none" stroke-width="1" fill="none" fill-rule="evenodd">
        <g id="图标切图" transform="translate(-426.000000, -4.000000)">
            <g id="listen_img" filter="url(#filter-1)" transform="translate(428.000000, 4.000000)">
                <rect id="Rectangle-3" fill-opacity="0.01" fill="#FFFFFF" x="0" y="0" width="400" height="600"></rect>
                <circle id="Oval-5" stroke="#FC384C" stroke-width="18" fill="#FFFFFF" cx="200" cy="391" r="185"></circle>
                <path d="M123.359375,281.4375 L129.609375,281.4375 C126.171858,279.145822 123.463552,276.33335 121.484375,273 C119.08853,276.229183 116.328141,279.041655 113.203125,281.4375 L118.984375,281.4375 L118.984375,286.75 C119.401044,293.520867 117.265648,298.885397 112.578125,302.84375 C111.328119,301.697911 109.609386,300.239592 107.421875,298.46875 C111.171894,296.072905 112.890627,291.958363 112.578125,286.125 L112.578125,281.90625 C112.369791,282.010417 112.057294,282.218748 111.640625,282.53125 C110.911455,283.052086 110.338544,283.416666 109.921875,283.625 C109.817708,283.416666 109.661459,283.000003 109.453125,282.375 C109.036456,281.333328 108.307297,279.718761 107.265625,277.53125 C112.682319,274.614569 116.380198,270.656275 118.359375,265.65625 L125.390625,265.96875 C125.286458,266.072917 125.182292,266.281248 125.078125,266.59375 C125.078125,266.802084 124.921877,267.114581 124.609375,267.53125 C127.421889,271.906272 130.911438,275.135406 135.078125,277.21875 C134.973958,277.427084 134.869792,277.739581 134.765625,278.15625 C133.723953,280.447928 133.046877,282.218744 132.734375,283.46875 C131.692703,282.843747 130.70313,282.218753 129.765625,281.59375 L129.765625,301.59375 L123.359375,301.59375 L123.359375,281.4375 Z M106.953125,302.375 L100.859375,302.375 L100.859375,285.65625 C100.651041,285.968752 100.234378,286.48958 99.609375,287.21875 C98.8802047,288.364589 98.3072937,289.197914 97.890625,289.71875 C97.7864578,289.093747 97.6822922,288.104173 97.578125,286.75 C97.2656234,284.041653 97.0572922,282.062506 96.953125,280.8125 C99.5573047,276.74998 101.848948,271.541698 103.828125,265.1875 L110.078125,266.90625 C109.14062,269.51043 108.098964,272.010405 106.953125,274.40625 L106.953125,302.375 Z M142.890625,265.03125 L148.984375,266.59375 C148.984375,266.697917 148.932292,266.802083 148.828125,266.90625 C148.723958,267.114584 148.671875,267.374998 148.671875,267.6875 L157.890625,267.6875 L157.890625,265.03125 L163.984375,265.03125 L163.984375,267.6875 L174.296875,267.6875 L174.296875,272.53125 L163.984375,272.53125 L163.984375,274.25 L172.734375,274.25 L172.734375,296.90625 L174.921875,296.90625 L174.921875,301.4375 L147.109375,301.4375 L147.109375,296.90625 L149.296875,296.90625 L149.296875,274.25 L157.890625,274.25 L157.890625,272.53125 L148.359375,272.53125 L148.359375,268.625 C148.151041,269.250003 147.838544,270.135411 147.421875,271.28125 C146.901039,272.531256 146.536459,273.468747 146.328125,274.09375 L146.328125,302.375 L140.546875,302.375 L140.546875,285.65625 C139.60937,287.010423 138.67188,288.416659 137.734375,289.875 L137.265625,285.65625 C137.057291,283.677073 136.901042,282.270837 136.796875,281.4375 C139.296887,276.437475 141.328117,270.96878 142.890625,265.03125 Z M155.234375,284.25 L155.234375,285.96875 L166.796875,285.96875 L166.796875,284.25 L155.234375,284.25 Z M155.234375,295.34375 L155.234375,296.90625 L166.796875,296.90625 L166.796875,295.34375 L155.234375,295.34375 Z M155.234375,289.875 L155.234375,291.4375 L166.796875,291.4375 L166.796875,289.875 L155.234375,289.875 Z M155.234375,278.78125 L155.234375,280.34375 L166.796875,280.34375 L166.796875,278.78125 L155.234375,278.78125 Z M184.921875,283.46875 L184.921875,283.3125 C180.755188,282.270828 178.619792,279.614605 178.515625,275.34375 C179.140628,269.510387 183.25517,266.437502 190.859375,266.125 C198.46358,266.437502 202.578122,269.510387 203.203125,275.34375 C203.203125,279.510437 200.807316,282.166661 196.015625,283.3125 C201.223984,284.354172 203.932291,287.166644 204.140625,291.75 C204.036458,298.4167 199.349005,301.75 190.078125,301.75 C181.953084,301.541666 177.734377,298.312531 177.421875,292.0625 C177.630209,287.583311 180.130184,284.718756 184.921875,283.46875 Z M195.390625,275.8125 C195.390625,273.104153 193.880223,271.75 190.859375,271.75 C187.942694,271.854167 186.432292,273.20832 186.328125,275.8125 C186.223958,278.104178 187.734359,279.666663 190.859375,280.5 C193.880223,279.666663 195.390625,278.104178 195.390625,275.8125 Z M196.328125,291.90625 C196.432292,289.093736 194.505228,287.218755 190.546875,286.28125 C187.005191,287.218755 185.234375,289.041653 185.234375,291.75 C185.442709,294.770848 187.265608,296.385416 190.703125,296.59375 C194.348977,296.489583 196.223958,294.927098 196.328125,291.90625 Z M233.203125,284.09375 C233.411459,296.072977 228.98442,301.958334 219.921875,301.75 C211.171831,301.541666 206.744792,295.708391 206.640625,284.25 C206.953127,272.583275 211.380166,266.541669 219.921875,266.125 C228.671919,266.229167 233.098958,272.218691 233.203125,284.09375 Z M225.078125,284.25 C225.182292,275.812458 223.515642,271.697916 220.078125,271.90625 C216.536441,271.802083 214.765625,275.916625 214.765625,284.25 C214.765625,292.270873 216.536441,296.28125 220.078125,296.28125 C223.515642,296.28125 225.182292,292.270873 225.078125,284.25 Z M262.578125,284.09375 C262.786459,296.072977 258.35942,301.958334 249.296875,301.75 C240.546831,301.541666 236.119792,295.708391 236.015625,284.25 C236.328127,272.583275 240.755166,266.541669 249.296875,266.125 C258.046919,266.229167 262.473958,272.218691 262.578125,284.09375 Z M254.453125,284.25 C254.557292,275.812458 252.890642,271.697916 249.453125,271.90625 C245.911441,271.802083 244.140625,275.916625 244.140625,284.25 C244.140625,292.270873 245.911441,296.28125 249.453125,296.28125 C252.890642,296.28125 254.557292,292.270873 254.453125,284.25 Z M296.640625,287.6875 L301.328125,289.5625 C302.057295,289.770834 302.578123,289.927083 302.890625,290.03125 C302.578123,293.052098 302.161461,295.395825 301.640625,297.0625 C301.119789,300.291683 298.776062,301.802084 294.609375,301.59375 L290.859375,301.59375 C286.796855,301.59375 284.765625,299.666686 284.765625,295.8125 L284.765625,283.9375 L280.859375,283.9375 C281.276044,292.583377 277.31775,298.781231 268.984375,302.53125 C267.526034,300.343739 266.171881,298.572923 264.921875,297.21875 C268.567727,295.239573 270.963536,293.364592 272.109375,291.59375 C273.359381,289.927075 274.036458,287.375017 274.140625,283.9375 L265.546875,283.9375 L265.546875,277.6875 L302.265625,277.6875 L302.265625,283.9375 L291.484375,283.9375 L291.484375,293.9375 C291.380208,295.395841 291.953119,296.072917 293.203125,295.96875 L293.671875,295.96875 C295.026048,296.177084 295.755208,295.500008 295.859375,293.9375 C295.963542,293.416664 296.119791,292.270842 296.328125,290.5 C296.432292,289.249994 296.536458,288.312503 296.640625,287.6875 Z M268.671875,266.75 L299.140625,266.75 L299.140625,273 L268.671875,273 L268.671875,266.75 Z M76.296875,333.796875 L79.109375,333.796875 L79.109375,327 L87.78125,327 L87.78125,324.890625 L92.703125,324.890625 C92.6249996,325.593754 92.5859375,326.296871 92.5859375,327 L101.140625,327 L101.140625,333.796875 L103.953125,333.796875 L103.953125,337.78125 L93.171875,337.78125 C94.6562574,339.578134 98.4062199,340.515625 104.421875,340.59375 C103.48437,342.078132 102.664066,343.562493 101.960938,345.046875 C95.7109062,344.265621 91.7656332,342.859385 90.125,340.828125 C88.9531191,342.625009 85.0469082,344.187493 78.40625,345.515625 C77.7812469,344.42187 76.8828184,343.015634 75.7109375,341.296875 C81.804718,340.671872 85.4765563,339.500009 86.7265625,337.78125 L76.296875,337.78125 L76.296875,333.796875 Z M93.40625,317.273438 L98.09375,317.273438 L98.09375,319.851562 L103.953125,319.851562 L103.953125,323.71875 L98.09375,323.71875 L98.09375,325.828125 L93.40625,325.828125 L93.40625,323.71875 L86.84375,323.71875 L86.84375,325.828125 L82.15625,325.828125 L82.15625,323.71875 L76.296875,323.71875 L76.296875,319.851562 L82.15625,319.851562 L82.15625,317.273438 L86.84375,317.273438 L86.84375,319.851562 L93.40625,319.851562 L93.40625,317.273438 Z M96.5703125,330.75 L92.5859375,330.75 C92.5078121,331.843755 92.46875,332.85937 92.46875,333.796875 L96.5703125,333.796875 L96.5703125,330.75 Z M83.6796875,330.75 L83.6796875,333.796875 L87.546875,333.796875 C87.6250004,332.937496 87.6640625,331.921881 87.6640625,330.75 L83.6796875,330.75 Z M133.601562,322.078125 L123.992188,322.078125 L123.640625,323.835938 L131.960938,323.835938 L131.960938,329.578125 L134.304688,329.578125 L134.304688,333.328125 L114.03125,333.328125 L114.03125,329.578125 L117.78125,329.578125 L118.25,327.351562 L115.320312,327.351562 L115.320312,323.835938 L118.953125,323.835938 L119.304688,322.078125 L114.617188,322.078125 L114.617188,318.328125 L133.601562,318.328125 L133.601562,322.078125 Z M115.789062,345.398438 L115.789062,334.734375 L132.78125,334.734375 L132.78125,345.398438 L127.976562,345.398438 L127.976562,344.226562 L120.476562,344.226562 L120.476562,345.398438 L115.789062,345.398438 Z M114.148438,334.96875 C114.226563,335.203126 114.304687,335.554685 114.382812,336.023438 C114.773439,337.742196 115.085936,338.992184 115.320312,339.773438 L113.796875,341.296875 C112.781245,342.078129 112.039065,342.742185 111.570312,343.289062 C111.10156,343.757815 110.554691,344.382809 109.929688,345.164062 C109.929688,345.085937 109.851563,345.164061 109.695312,345.398438 L106.882812,342 C107.742192,341.218746 108.132813,340.164069 108.054688,338.835938 L108.054688,330.867188 L105.945312,330.867188 L105.945312,326.414062 L112.507812,326.414062 L112.507812,336.492188 L114.148438,334.96875 Z M110.398438,317.273438 C111.570318,318.75782 112.820306,320.476553 114.148438,322.429688 L109.929688,325.007812 C109.226559,323.601555 108.093758,321.726574 106.53125,319.382812 L110.398438,317.273438 Z M120.476562,338.484375 L120.476562,340.710938 L127.976562,340.710938 L127.976562,338.484375 L120.476562,338.484375 Z M127.273438,327.351562 L122.820312,327.351562 L122.351562,329.578125 L127.273438,329.578125 L127.273438,327.351562 Z M161.023438,317.625 C161.804691,318.406254 162.664058,319.304682 163.601562,320.320312 C163.445312,320.242187 163.562498,320.398436 163.953125,320.789062 L160.789062,322.898438 L164.421875,322.898438 L164.421875,327.117188 L158.5625,327.117188 C158.718751,333.054717 159.26562,337.351549 160.203125,340.007812 C160.359376,340.320314 160.476562,340.476562 160.554688,340.476562 C160.710938,340.398437 160.828125,340.203127 160.90625,339.890625 C160.90625,339.656249 160.984374,339.187504 161.140625,338.484375 C161.21875,337.54687 161.296875,336.765628 161.375,336.140625 C161.843752,336.296876 162.507808,336.570311 163.367188,336.960938 C163.914065,337.117188 164.343748,337.273437 164.65625,337.429688 C164.421874,339.304697 164.109377,340.906243 163.71875,342.234375 C163.249998,344.18751 162.195321,345.203125 160.554688,345.28125 C158.289051,345.28125 156.648443,343.679704 155.632812,340.476562 C154.773433,337.351547 154.265626,332.898466 154.109375,327.117188 L144.148438,327.117188 L144.148438,322.898438 L153.992188,322.898438 C153.835937,320.945303 153.835937,320.749992 153.992188,322.3125 C153.835937,320.749992 153.757812,319.109384 153.757812,317.390625 L158.328125,317.390625 L158.328125,319.265625 L161.023438,317.625 Z M144.851562,333.796875 L144.851562,329.578125 L153.40625,329.578125 L153.40625,333.796875 L151.414062,333.796875 L151.414062,339.1875 C152.351567,339.031249 153.367182,338.914063 154.460938,338.835938 C154.382812,340.32032 154.382812,341.687494 154.460938,342.9375 C153.757809,343.015625 152.66407,343.171874 151.179688,343.40625 C148.289048,343.796877 146.218756,344.109374 144.96875,344.34375 L144.148438,340.710938 C142.898431,341.726568 142.000003,342.50781 141.453125,343.054688 C141.140623,343.289064 140.671878,343.757809 140.046875,344.460938 L139.460938,345.046875 L136.882812,341.882812 C137.742192,341.101559 138.132813,340.046882 138.054688,338.71875 L138.054688,330.867188 L135.945312,330.867188 L135.945312,326.414062 L142.507812,326.414062 L142.507812,336.726562 L144.148438,335.203125 L144.148438,335.789062 C144.304688,337.664072 144.460937,339.070308 144.617188,340.007812 C144.929689,340.007812 145.32031,339.96875 145.789062,339.890625 C146.33594,339.890625 146.765623,339.851563 147.078125,339.773438 L147.078125,333.796875 L144.851562,333.796875 Z M140.515625,317.273438 C140.671876,317.429688 140.867186,317.703123 141.101562,318.09375 C142.50782,319.968759 143.562496,321.414057 144.265625,322.429688 L140.046875,325.007812 C139.10937,323.289054 137.937507,321.453135 136.53125,319.5 L140.515625,317.273438 Z M160.554688,322.898438 C160.398437,322.742187 160.164064,322.42969 159.851562,321.960938 C159.226559,321.179684 158.718752,320.55469 158.328125,320.085938 C158.328125,320.476564 158.367187,320.984372 158.445312,321.609375 L158.445312,322.898438 L160.554688,322.898438 Z M166.765625,319.382812 L177.078125,319.382812 L177.078125,340.945312 C178.484382,338.601551 179.148438,334.734402 179.070312,329.34375 L179.070312,319.382812 C183.52346,318.992186 187.859354,318.484378 192.078125,317.859375 L193.71875,322.3125 C192.156242,322.546876 189.812516,322.820311 186.6875,323.132812 L183.523438,323.484375 L183.523438,327.234375 L194.304688,327.234375 L194.304688,331.570312 L191.023438,331.570312 L191.023438,344.8125 L186.453125,344.8125 L186.453125,331.570312 L183.523438,331.570312 C183.601563,337.273466 182.351575,341.960919 179.773438,345.632812 L176.960938,343.171875 C176.492185,342.781248 176.179688,342.507813 176.023438,342.351562 C176.414064,341.960936 176.726561,341.49219 176.960938,340.945312 L170.984375,340.945312 L170.984375,342.703125 L166.765625,342.703125 L166.765625,319.382812 Z M170.984375,323.71875 L170.984375,336.609375 L172.859375,336.609375 L172.859375,323.71875 L170.984375,323.71875 Z M204.851562,332.15625 L204.851562,318.328125 L223.015625,318.328125 L223.015625,332.15625 L215.984375,332.15625 L215.984375,333.796875 L224.1875,333.796875 L224.1875,337.429688 L218.210938,337.429688 C219.929696,338.992195 222.03905,340.203121 224.539062,341.0625 C223.757809,342.156255 223.015629,343.289057 222.3125,344.460938 C219.26561,342.976555 217.156256,341.570319 215.984375,340.242188 L215.984375,345.28125 L211.765625,345.28125 L211.765625,340.242188 C210.359368,341.804695 208.289076,343.289055 205.554688,344.695312 C205.476562,344.539062 205.281252,344.304689 204.96875,343.992188 C204.109371,342.820307 203.445315,341.96094 202.976562,341.414062 C205.867202,340.320307 208.05468,338.992195 209.539062,337.429688 L204.03125,337.429688 L204.03125,333.796875 L211.765625,333.796875 L211.765625,332.15625 L204.851562,332.15625 Z M203.679688,335.4375 C203.835938,337.078133 204.031249,338.640618 204.265625,340.125 C201.921863,342.15626 200.320317,343.718745 199.460938,344.8125 L197,341.648438 C197.781254,341.10156 198.132813,340.125007 198.054688,338.71875 L198.054688,330.632812 L195.945312,330.632812 L195.945312,326.179688 L202.390625,326.179688 L202.390625,336.726562 L203.679688,335.4375 Z M200.28125,317.390625 C200.984379,318.250004 202.078118,319.734364 203.5625,321.84375 C203.328124,321.609374 203.484372,321.843746 204.03125,322.546875 L200.046875,325.007812 C199.499997,324.070308 198.562507,322.546886 197.234375,320.4375 C196.999999,320.046873 196.804688,319.734376 196.648438,319.5 L200.28125,317.390625 Z M218.796875,328.640625 L218.796875,326.882812 L215.984375,326.882812 L215.984375,328.640625 L218.796875,328.640625 Z M208.953125,326.882812 L208.953125,328.640625 L211.765625,328.640625 L211.765625,326.882812 L208.953125,326.882812 Z M208.953125,321.84375 L208.953125,323.484375 L211.765625,323.484375 L211.765625,321.84375 L208.953125,321.84375 Z M218.796875,321.84375 L215.984375,321.84375 L215.984375,323.484375 L218.796875,323.484375 L218.796875,321.84375 Z M234.03125,317.273438 L239.421875,317.625 C239.109373,318.171878 238.718752,318.757809 238.25,319.382812 L248.679688,319.382812 L248.679688,322.429688 L245.75,325.359375 L251.609375,325.359375 L251.609375,336.257812 L240.828125,336.257812 C240.75,336.335938 240.671875,336.492186 240.59375,336.726562 C240.437499,336.960939 240.320313,337.156249 240.242188,337.3125 L243.640625,337.3125 L243.640625,339.421875 C243.5625,340.671881 244.109369,341.257813 245.28125,341.179688 L247.625,341.179688 C248.718755,341.179688 249.304687,340.750004 249.382812,339.890625 C249.539063,338.95312 249.65625,337.898443 249.734375,336.726562 C250.437504,337.039064 251.765615,337.468747 253.71875,338.015625 C253.875001,338.09375 253.992187,338.132812 254.070312,338.132812 C253.914062,339.69532 253.640627,341.023432 253.25,342.117188 C252.859373,343.992197 251.335951,344.890625 248.679688,344.8125 L243.40625,344.8125 C240.437485,344.968751 239.031249,343.679701 239.1875,340.945312 L239.1875,339.1875 C237.312491,341.531262 233.875025,343.679678 228.875,345.632812 C227.937495,344.226555 226.92188,342.937506 225.828125,341.765625 C231.062526,340.124992 234.382805,338.289073 235.789062,336.257812 L228.40625,336.257812 L228.40625,328.289062 C228.093748,327.898436 227.546879,327.117193 226.765625,325.945312 C226.374998,325.398435 226.101563,325.007814 225.945312,324.773438 C229.617206,322.664052 232.312491,320.164077 234.03125,317.273438 Z M247.15625,332.507812 L247.15625,329.109375 L242.351562,329.109375 C242.273437,329.734378 242.156251,330.554682 242,331.570312 C241.921875,332.039065 241.882812,332.351562 241.882812,332.507812 L247.15625,332.507812 Z M242.351563,323.132812 L235.320313,323.132812 C234.617184,323.914066 233.835942,324.656246 232.976563,325.359375 L240.125,325.359375 L242.351563,323.132812 Z M232.859375,329.109375 L232.859375,332.507812 L237.195312,332.507812 C237.429689,331.335932 237.585937,330.20313 237.664062,329.109375 L232.859375,329.109375 Z M271.53125,317.390625 L275.984375,317.390625 L275.984375,318.914062 L282.78125,318.914062 L282.78125,326.179688 L275.984375,326.179688 L275.984375,327.351562 L283.601562,327.351562 C283.601562,327.742189 283.5625,328.289059 283.484375,328.992188 C283.484375,329.773441 283.445313,330.359373 283.367188,330.75 C283.367188,332.000006 282.429697,332.664062 280.554688,332.742188 L277.15625,332.742188 C277.078125,332.585937 276.960938,332.27344 276.804688,331.804688 C276.726562,331.492186 276.648438,331.257813 276.570312,331.101562 L278.445312,331.101562 C279.070316,331.179688 279.34375,330.906253 279.265625,330.28125 L275.984375,330.28125 L275.984375,332.742188 L271.53125,332.742188 L271.53125,330.28125 L268.484375,330.28125 C268.249999,331.531256 267.625005,332.507809 266.609375,333.210938 L281.023438,333.210938 L281.023438,339.65625 L276.570312,339.65625 L276.570312,336.492188 L264.148438,336.492188 L264.148438,340.125 L259.578125,340.125 L259.578125,335.4375 C259.421874,335.4375 259.109377,335.476562 258.640625,335.554688 C258.249998,335.632813 257.937501,335.710937 257.703125,335.789062 C257.234373,334.695307 256.687503,333.562506 256.0625,332.390625 C260.593773,332.156249 263.13281,331.453131 263.679688,330.28125 L257,330.28125 L258.054688,323.132812 L264.382812,323.132812 L264.382812,321.960938 L257.234375,321.960938 L257.234375,318.914062 L264.382812,318.914062 L264.382812,317.390625 L268.71875,317.390625 L268.71875,318.914062 L271.53125,318.914062 L271.53125,317.390625 Z M267.78125,336.84375 L272.585938,336.84375 C272.585938,337.000001 272.546875,337.234373 272.46875,337.546875 C272.46875,338.250004 272.390626,338.757811 272.234375,339.070312 C273.015629,339.226563 274.14843,339.460936 275.632812,339.773438 C279.304706,340.476566 282.15624,341.023436 284.1875,341.414062 L282.195312,345.515625 C278.367168,344.42187 274.421895,343.367193 270.359375,342.351562 C268.640616,343.835945 264.500033,344.85156 257.9375,345.398438 C257.781249,345.007811 257.507814,344.460941 257.117188,343.757812 C256.648435,342.585932 256.257814,341.804689 255.945313,341.414062 C264.382855,341.570313 268.328128,340.046891 267.78125,336.84375 Z M268.71875,326.179688 L268.71875,327.351562 L271.53125,327.351562 L271.53125,326.179688 L268.71875,326.179688 Z M268.71875,321.960938 L268.71875,323.132812 L271.53125,323.132812 L271.53125,321.960938 L268.71875,321.960938 Z M261.804688,326.179688 L261.570312,327.351562 L264.382812,327.351562 L264.382812,326.179688 L261.804688,326.179688 Z M278.5625,321.960938 L275.984375,321.960938 L275.984375,323.132812 L278.5625,323.132812 L278.5625,321.960938 Z M295.90625,321.960938 L297.429688,321.960938 L297.429688,317.507812 L301.414062,317.507812 L301.414062,321.960938 L302.703125,321.960938 L302.703125,326.0625 L301.414062,326.0625 L301.414062,329.929688 C301.648439,329.851562 301.921873,329.773438 302.234375,329.695312 C302.625002,329.617187 302.898437,329.578125 303.054688,329.578125 L303.054688,334.03125 C302.976562,334.03125 302.781252,334.070312 302.46875,334.148438 C302.078123,334.304688 301.726564,334.421875 301.414062,334.5 L301.414062,341.648438 C301.414062,343.679698 300.43751,344.812499 298.484375,345.046875 L297.078125,345.046875 C296.374996,345.125 295.789065,345.164062 295.320312,345.164062 C295.007811,343.601555 294.734376,342.390629 294.5,341.53125 L290.632812,341.53125 L290.632812,343.523438 L286.882812,343.523438 L286.882812,319.265625 L295.320312,319.265625 L295.320312,340.945312 L296.257812,340.945312 C297.039066,340.945312 297.429688,340.554691 297.429688,339.773438 L297.429688,335.671875 C297.117186,335.828126 296.648441,335.945312 296.023438,336.023438 C295.945312,336.101563 295.867188,336.140625 295.789062,336.140625 L295.554688,331.21875 C296.101565,331.062499 296.726559,330.945313 297.429688,330.867188 L297.429688,326.0625 L295.90625,326.0625 L295.90625,321.960938 Z M309.96875,327.351562 L313.953125,328.054688 C313.640623,329.617195 313.171878,331.882798 312.546875,334.851562 C311.999997,337.351575 311.609376,339.226556 311.375,340.476562 L314.304688,340.476562 L314.304688,344.460938 L302.351562,344.460938 L302.351562,340.476562 L307.742188,340.476562 C307.898438,339.773434 308.015625,339.070316 308.09375,338.367188 L304.8125,338.953125 C304.578124,337.390617 304.226565,334.968766 303.757812,331.6875 C303.523436,330.124992 303.328126,328.914067 303.171875,328.054688 L306.804688,327.46875 C306.960938,328.48438 307.234373,330.085927 307.625,332.273438 C307.937502,334.382823 308.171874,335.98437 308.328125,337.078125 C308.40625,336.374996 308.562499,335.398444 308.796875,334.148438 C309.343753,331.257798 309.734374,328.992196 309.96875,327.351562 Z M305.515625,317.859375 L310.203125,317.507812 C310.437501,319.07032 310.671874,320.55468 310.90625,321.960938 L313.953125,321.960938 L313.953125,326.179688 L303.289062,326.179688 L303.289062,321.960938 L306.335938,321.960938 C306.335938,321.804687 306.296875,321.609376 306.21875,321.375 C306.062499,320.437495 305.828127,319.265632 305.515625,317.859375 Z M290.632812,323.25 L290.632812,337.546875 L291.921875,337.546875 L291.921875,323.25 L290.632812,323.25 Z M324.382812,318.445312 L323.445312,336.375 L318.875,336.375 L318.054688,318.445312 L324.382812,318.445312 Z M324.148438,344.226562 L318.289062,344.226562 L318.289062,338.835938 L324.148438,338.835938 L324.148438,344.226562 Z" id="价值800元-英语试听课免费啦！" fill="#002F6C"></path>
                <circle id="Oval-6" stroke="#FC384C" stroke-width="18" fill="#FFFFFF" cx="118" cy="124" r="50"></circle>
                <circle id="Oval-7" fill="#B7C9D3" cx="118" cy="124" r="20"></circle>
                <circle id="Oval-6-Copy" stroke="#FC384C" stroke-width="18" fill="#FFFFFF" cx="276" cy="118" r="50"></circle>
                <circle id="Oval-7-Copy" fill="#B7C9D3" cx="276" cy="118" r="20"></circle>
                <path d="M124.70455,175.940478 C129.46626,192.861275 136.519718,206.77591 145.864925,217.684384" id="Path-2" stroke="#FC384C" stroke-width="18"></path>
                <path d="M240.70455,170.940478 C245.46626,187.861275 252.519718,201.77591 261.864925,212.684384" id="Path-2-Copy" stroke="#FC384C" stroke-width="18" transform="translate(251.284737, 191.812431) scale(-1, 1) translate(-251.284737, -191.812431) "></path>
            </g>
        </g>
    </g>
</svg>