<?xml version="1.0" encoding="UTF-8"?>
<svg width="275px" height="140px" viewBox="0 0 275 140" version="1.1" xmlns="http://www.w3.org/2000/svg" xmlns:xlink="http://www.w3.org/1999/xlink">
    <!-- Generator: Sketch 49.2 (51160) - http://www.bohemiancoding.com/sketch -->
    <title>140</title>
    <desc>Created with Sketch.</desc>
    <defs></defs>
    <g id="Page-1" stroke="none" stroke-width="1" fill="none" fill-rule="evenodd">
        <g id="图标切图" transform="translate(-565.000000, -770.000000)">
            <g id="140" transform="translate(565.000000, 770.000000)">
                <rect id="Rectangle-Copy-2" fill="#FFFFFF" opacity="0.01" x="0" y="0" width="275" height="140"></rect>
                <path d="M193,42.2258065 L193,10 L157.193548,10 L157.193548,25.0745161 L148.048581,30.3004677 C141.696516,20.2710806 130.530274,13.5806452 117.806452,13.5806452 C98.0627742,13.5806452 82,29.6434194 82,49.3870968 C82,63.1296129 89.7914839,75.0710645 101.181516,81.0722258 L98.6141935,88.7741935 L82,88.7741935 L82,121 L117.806452,121 L117.806452,88.7741935 L102.386403,88.7741935 L104.450645,82.5832581 C108.58271,84.2518387 113.083581,85.1935484 117.806452,85.1935484 C124.117339,85.1935484 130.043306,83.5375 135.197645,80.6604516 L150.809258,106.677419 L157.193548,106.677419 L157.193548,121 L193,121 L193,88.7741935 L157.193548,88.7741935 L157.193548,103.096774 L152.835903,103.096774 L138.230452,78.7555484 C147.515065,72.2799516 153.612903,61.5398065 153.612903,49.3870968 C153.612903,43.6455323 152.220032,38.2333871 149.808468,33.4174194 L157.193548,29.197629 L157.193548,42.2258065 L193,42.2258065 Z M160.774194,13.5806452 L189.419355,13.5806452 L189.419355,38.6451613 L160.774194,38.6451613 L160.774194,13.5806452 Z M160.774194,92.3548387 L189.419355,92.3548387 L189.419355,117.419355 L160.774194,117.419355 L160.774194,92.3548387 Z M114.225806,92.3548387 L114.225806,117.419355 L85.5806452,117.419355 L85.5806452,92.3548387 L114.225806,92.3548387 Z M102.325532,77.6365968 C92.3552258,72.1510484 85.5806452,61.5487581 85.5806452,49.3870968 C85.5806452,31.6181452 100.0375,17.1612903 117.806452,17.1612903 C129.201855,17.1612903 139.211548,23.1230645 144.942371,32.0746774 L134.218339,38.2029516 L122.130081,26.1146935 C120.995016,24.9760484 119.419532,24.3225806 117.811823,24.3225806 L117.806452,24.3225806 C116.171887,24.3225806 114.63579,24.9581452 113.482823,26.1129032 L92.5861774,47.0077581 C91.5316774,48.0640484 90.9516129,49.4676613 90.9516129,50.959 C90.9516129,53.9667419 93.3434839,56.4087419 96.3225806,56.5251129 L96.3225806,70.8709677 L104.581339,70.8709677 L102.325532,77.6365968 Z M110.645161,56.5483871 L110.645161,67.2903226 L99.9032258,67.2903226 L99.9032258,55.3918387 C100.105532,55.2396613 100.311419,55.0910645 100.490452,54.9102419 L116.017919,39.3863548 C116.959629,38.4428548 118.656855,38.4482258 119.596774,39.3863548 L135.120661,54.9102419 C135.301484,55.0910645 135.507371,55.2396613 135.709677,55.3918387 L135.709677,67.2903226 L124.967742,67.2903226 L124.967742,56.5483871 L110.645161,56.5483871 Z M121.387097,60.1290323 L121.387097,67.2903226 L114.225806,67.2903226 L114.225806,60.1290323 L121.387097,60.1290323 Z M122.12829,36.8548387 C119.854581,34.5793387 115.752952,34.581129 113.484613,36.8548387 L97.9571452,52.3787258 C97.5847581,52.7529032 97.0673548,52.9677419 96.5392097,52.9677419 C95.4327903,52.9677419 94.5322581,52.0672097 94.5322581,50.959 C94.5322581,50.4308548 94.7470968,49.9134516 95.1194839,49.5392742 L116.014339,28.6444194 C116.494145,28.1664032 117.12971,27.9032258 117.806452,27.9032258 L117.808242,27.9032258 C118.476032,27.9032258 119.12771,28.1735645 119.598565,28.6462097 L140.491629,49.5392742 C140.865806,49.9134516 141.080645,50.4308548 141.080645,50.959 C141.080645,52.0672097 140.180113,52.9677419 139.073694,52.9677419 C138.545548,52.9677419 138.028145,52.7529032 137.653968,52.3787258 L122.12829,36.8548387 Z M117.806452,81.6129032 C113.479242,81.6129032 109.354339,80.7428065 105.582129,79.1888065 L108.353548,70.8709677 L110.645161,70.8709677 L124.967742,70.8709677 L129.325387,70.8709677 L133.358984,77.593629 C128.743532,80.1484194 123.444177,81.6129032 117.806452,81.6129032 Z M150.032258,49.3870968 C150.032258,60.2364516 144.625484,69.8307903 136.382839,75.6744032 L133.500419,70.8709677 L139.290323,70.8709677 L139.290323,56.5251129 C142.269419,56.4087419 144.66129,53.9649516 144.66129,50.959 C144.66129,49.4676613 144.081226,48.0640484 143.024935,47.0077581 L136.842952,40.8257742 L146.695097,35.1952097 C148.811258,39.4848226 150.032258,44.2900484 150.032258,49.3870968 Z M164.354839,17.1612903 L167.935484,17.1612903 L167.935484,20.7419355 L164.354839,20.7419355 L164.354839,17.1612903 Z M171.516129,17.1612903 L185.83871,17.1612903 L185.83871,20.7419355 L171.516129,20.7419355 L171.516129,17.1612903 Z M182.258065,31.483871 L185.83871,31.483871 L185.83871,35.0645161 L182.258065,35.0645161 L182.258065,31.483871 Z M164.354839,31.483871 L178.677419,31.483871 L178.677419,35.0645161 L164.354839,35.0645161 L164.354839,31.483871 Z M164.354839,24.3225806 L185.83871,24.3225806 L185.83871,27.9032258 L164.354839,27.9032258 L164.354839,24.3225806 Z M89.1612903,95.9354839 L92.7419355,95.9354839 L92.7419355,99.516129 L89.1612903,99.516129 L89.1612903,95.9354839 Z M96.3225806,95.9354839 L110.645161,95.9354839 L110.645161,99.516129 L96.3225806,99.516129 L96.3225806,95.9354839 Z M107.064516,110.258065 L110.645161,110.258065 L110.645161,113.83871 L107.064516,113.83871 L107.064516,110.258065 Z M89.1612903,110.258065 L103.483871,110.258065 L103.483871,113.83871 L89.1612903,113.83871 L89.1612903,110.258065 Z M89.1612903,103.096774 L110.645161,103.096774 L110.645161,106.677419 L89.1612903,106.677419 L89.1612903,103.096774 Z M164.354839,95.9354839 L167.935484,95.9354839 L167.935484,99.516129 L164.354839,99.516129 L164.354839,95.9354839 Z M171.516129,95.9354839 L185.83871,95.9354839 L185.83871,99.516129 L171.516129,99.516129 L171.516129,95.9354839 Z M182.258065,110.258065 L185.83871,110.258065 L185.83871,113.83871 L182.258065,113.83871 L182.258065,110.258065 Z M164.354839,110.258065 L178.677419,110.258065 L178.677419,113.83871 L164.354839,113.83871 L164.354839,110.258065 Z M164.354839,103.096774 L185.83871,103.096774 L185.83871,106.677419 L164.354839,106.677419 L164.354839,103.096774 Z" id="analytics-3" fill="#FC384C" fill-rule="nonzero"></path>
            </g>
        </g>
    </g>
</svg>