<?xml version="1.0" encoding="UTF-8"?>
<svg width="275px" height="140px" viewBox="0 0 275 140" version="1.1" xmlns="http://www.w3.org/2000/svg" xmlns:xlink="http://www.w3.org/1999/xlink">
    <!-- Generator: Sketch 49.2 (51160) - http://www.bohemiancoding.com/sketch -->
    <title>18</title>
    <desc>Created with Sketch.</desc>
    <defs></defs>
    <g id="Page-1" stroke="none" stroke-width="1" fill="none" fill-rule="evenodd">
        <g id="图标切图" transform="translate(-840.000000, -770.000000)">
            <g id="18" transform="translate(840.000000, 770.000000)">
                <rect id="Rectangle-Copy-3" fill="#FFFFFF" opacity="0.01" x="0" y="0" width="275" height="140"></rect>
                <path d="M184.598016,31.483871 C184.345581,30.7677419 184.057339,30.0677258 183.736871,29.3927742 L189.673581,23.4542742 L179.547516,13.3264194 L173.609016,19.2649194 C172.930484,18.9426613 172.232258,18.6544194 171.516129,18.4019839 L171.516129,10 L157.193548,10 L157.193548,18.4019839 C156.477419,18.6544194 155.779194,18.9426613 155.102452,19.263129 L149.163952,13.324629 L139.037887,23.4524839 L144.974597,29.3909839 C144.652339,30.0677258 144.364097,30.7659516 144.113452,31.4820806 L135.709677,31.4820806 L135.709677,40.525 C123.712726,41.4470161 114.225806,51.4799839 114.225806,63.7096774 L114.225806,74.4516129 C114.225806,78.4010645 117.437645,81.6129032 121.387097,81.6129032 L121.492726,81.6129032 C122.001177,86.1818065 124.430645,90.1688548 127.948629,92.7701935 L118.075,94.5748387 C112.723726,95.5541452 108.260452,99.127629 106.137129,104.136952 L98.9901613,121 L176.009839,121 L168.862871,104.136952 C166.739548,99.127629 162.276274,95.5541452 156.925,94.5748387 L147.051371,92.7701935 C150.569355,90.1688548 153.000613,86.1818065 153.507274,81.6129032 L153.612903,81.6129032 C157.562355,81.6129032 160.774194,78.4010645 160.774194,74.4516129 L160.774194,67.2903226 L171.516129,67.2903226 L171.516129,58.8883387 C172.232258,58.6359032 172.930484,58.3476613 173.607226,58.0271935 L179.545726,63.9656935 L189.67179,53.8378387 L183.735081,47.8993387 C184.057339,47.2225968 184.345581,46.524371 184.596226,45.8082419 L193,45.8082419 L193,45.8064516 L193,31.483871 L184.598016,31.483871 Z M121.387097,78.0322581 C119.412371,78.0322581 117.806452,76.4263387 117.806452,74.4516129 C117.806452,72.4768871 119.412371,70.8709677 121.387097,70.8709677 L121.387097,78.0322581 Z M121.716516,67.2903226 L121.387097,67.2903226 C120.076581,67.2903226 118.864532,67.669871 117.806452,68.2857419 L117.806452,63.7096774 C117.806452,53.4547097 125.687452,45.015129 135.709677,44.1074355 L135.709677,45.8064516 L144.111661,45.8064516 C144.364097,46.5225806 144.652339,47.2225968 144.972806,47.8975484 L139.036097,53.8360484 L148.983129,63.784871 C148.739645,63.7508548 148.496161,63.7096774 148.241935,63.7096774 L126.758065,63.7096774 C124.427065,63.7096774 122.45771,65.2117581 121.716516,67.2903226 Z M129.776548,96.075129 L134.825258,101.152484 L129.531274,105.388387 L127.014081,96.58 L129.776548,96.075129 Z M134.375887,95.6257581 C135.387419,95.8262742 136.431177,95.9354839 137.5,95.9354839 C138.568823,95.9354839 139.612581,95.8262742 140.624113,95.6257581 L137.5,98.7677742 L134.375887,95.6257581 Z M156.280484,98.0981935 C160.442984,98.8590806 163.914419,101.639452 165.565097,105.535194 L170.603065,117.419355 L162.03279,117.419355 L160.53071,109.907161 L157.019887,110.610758 L158.382323,117.419355 L139.290323,117.419355 L139.290323,113.83871 L135.709677,113.83871 L135.709677,117.419355 L116.202323,117.419355 L117.564758,110.608968 L114.053935,109.905371 L112.550065,117.419355 L104.396935,117.419355 L109.434903,105.535194 C111.085581,101.637661 114.555226,98.8590806 118.719516,98.0964032 L123.474613,97.2263065 L127.5655,111.545306 L135.709677,105.032113 L135.709677,110.258065 L139.290323,110.258065 L139.290323,105.032113 L147.4345,111.547097 L151.525387,97.2280968 L156.280484,98.0981935 Z M147.985919,96.5817903 L145.468726,105.390177 L140.176532,101.154274 L145.225242,96.0769194 L147.985919,96.5817903 Z M150.032258,79.8225806 C150.032258,86.7314355 144.408855,92.3548387 137.5,92.3548387 C130.591145,92.3548387 124.967742,86.7314355 124.967742,79.8225806 L124.967742,69.0806452 C124.967742,68.0923871 125.769806,67.2903226 126.758065,67.2903226 L148.241935,67.2903226 C149.230194,67.2903226 150.032258,68.0923871 150.032258,69.0806452 L150.032258,79.8225806 Z M153.612903,78.0322581 L153.612903,70.8709677 C155.587629,70.8709677 157.193548,72.4768871 157.193548,74.4516129 C157.193548,76.4263387 155.587629,78.0322581 153.612903,78.0322581 Z M157.195339,63.7096774 L157.195339,67.2903226 L157.195339,68.2857419 L157.193548,68.2857419 C156.135468,67.669871 154.923419,67.2903226 153.612903,67.2903226 L153.283484,67.2903226 C152.658661,65.5375968 151.165532,64.1930645 149.310758,63.8170968 L155.104242,58.0254032 C155.780984,58.3476613 156.47921,58.6359032 157.195339,58.8865484 L157.195339,63.7096774 Z M189.419355,42.2258065 L181.934016,42.2258065 L181.56521,43.527371 C181.18029,44.8844355 180.646774,46.1752581 179.980774,47.3658226 L179.320145,48.5474355 L184.608758,53.8360484 L179.545726,58.900871 L174.257113,53.6122581 L173.0755,54.2728871 C171.884935,54.9388871 170.594113,55.4706129 169.237048,55.8555323 L167.935484,56.2243387 L167.935484,63.7096774 L160.774194,63.7096774 L160.774194,56.2243387 L159.470839,55.8555323 C158.113774,55.4706129 156.822952,54.9388871 155.632387,54.2728871 L154.450774,53.6122581 L149.162161,58.900871 L144.099129,53.8360484 L149.387742,48.5474355 L148.727113,47.3658226 C148.061113,46.1752581 147.527597,44.8844355 147.142677,43.527371 L146.775661,42.2258065 L139.290323,42.2258065 L139.290323,35.0645161 L146.775661,35.0645161 L147.144468,33.7629516 C147.529387,32.4058871 148.062903,31.1150645 148.728903,29.9245 L149.389532,28.7428871 L144.100919,23.4542742 L149.163952,18.3894516 L154.452565,23.6780645 L155.634177,23.0174355 C156.824742,22.3514355 158.115565,21.8197097 159.472629,21.4347903 L160.774194,21.0659839 L160.774194,13.5806452 L167.935484,13.5806452 L167.935484,21.0659839 L169.238839,21.4347903 C170.595903,21.8197097 171.886726,22.3514355 173.07729,23.0174355 L174.258903,23.6780645 L179.547516,18.3894516 L184.610548,23.4542742 L179.321935,28.7428871 L179.982565,29.9245 C180.648565,31.1150645 181.182081,32.4058871 181.567,33.7629516 L181.934016,35.0645161 L189.419355,35.0645161 L189.419355,42.2258065 Z M164.354839,27.9032258 C158.430661,27.9032258 153.612903,32.7209839 153.612903,38.6451613 C153.612903,44.5693387 158.430661,49.3870968 164.354839,49.3870968 C170.279016,49.3870968 175.096774,44.5693387 175.096774,38.6451613 C175.096774,32.7209839 170.279016,27.9032258 164.354839,27.9032258 Z M164.354839,45.8064516 C160.405387,45.8064516 157.193548,42.5946129 157.193548,38.6451613 C157.193548,34.6957097 160.405387,31.483871 164.354839,31.483871 C168.30429,31.483871 171.516129,34.6957097 171.516129,38.6451613 C171.516129,42.5946129 168.30429,45.8064516 164.354839,45.8064516 Z M137.5,85.1935484 C139.474726,85.1935484 141.080645,83.587629 141.080645,81.6129032 L144.66129,81.6129032 C144.66129,85.5623548 141.449452,88.7741935 137.5,88.7741935 C133.550548,88.7741935 130.33871,85.5623548 130.33871,81.6129032 L133.919355,81.6129032 C133.919355,83.587629 135.525274,85.1935484 137.5,85.1935484 Z M142.870968,70.8709677 L146.451613,70.8709677 L146.451613,74.4516129 L142.870968,74.4516129 L142.870968,70.8709677 Z M128.548387,70.8709677 L132.129032,70.8709677 L132.129032,74.4516129 L128.548387,74.4516129 L128.548387,70.8709677 Z M117.806452,48.3379677 L104.533,35.0645161 L94.5322581,35.0645161 C87.6234032,35.0645161 82,29.4429032 82,22.5322581 C82,15.6216129 87.6234032,10 94.5322581,10 L116.016129,10 C122.924984,10 128.548387,15.6216129 128.548387,22.5322581 C128.548387,28.8359839 123.872065,34.0655161 117.806452,34.9374032 L117.806452,48.3379677 Z M85.5806452,22.5322581 C85.5806452,27.4681774 89.5963387,31.483871 94.5322581,31.483871 L106.015387,31.483871 L114.225806,39.6942903 L114.225806,31.483871 L116.016129,31.483871 C120.952048,31.483871 124.967742,27.4681774 124.967742,22.5322581 C124.967742,17.5963387 120.952048,13.5806452 116.016129,13.5806452 L94.5322581,13.5806452 C89.5963387,13.5806452 85.5806452,17.5963387 85.5806452,22.5322581 Z M103.483871,20.7419355 L107.064516,20.7419355 L107.064516,24.3225806 L103.483871,24.3225806 L103.483871,20.7419355 Z M114.225806,20.7419355 L117.806452,20.7419355 L117.806452,24.3225806 L114.225806,24.3225806 L114.225806,20.7419355 Z M92.7419355,20.7419355 L96.3225806,20.7419355 L96.3225806,24.3225806 L92.7419355,24.3225806 L92.7419355,20.7419355 Z" id="browser-2" fill="#FC384C" fill-rule="nonzero"></path>
            </g>
        </g>
    </g>
</svg>