<?xml version="1.0" encoding="UTF-8"?>
<svg width="275px" height="140px" viewBox="0 0 275 140" version="1.1" xmlns="http://www.w3.org/2000/svg" xmlns:xlink="http://www.w3.org/1999/xlink">
    <!-- Generator: Sketch 49.2 (51160) - http://www.bohemiancoding.com/sketch -->
    <title>9</title>
    <desc>Created with Sketch.</desc>
    <defs></defs>
    <g id="Page-1" stroke="none" stroke-width="1" fill="none" fill-rule="evenodd">
        <g id="图标切图" transform="translate(-290.000000, -770.000000)">
            <g id="9" transform="translate(290.000000, 770.000000)">
                <rect id="Rectangle-Copy" fill="#FFFFFF" opacity="0.01" x="0" y="0" width="275" height="140"></rect>
                <path d="M193,38.6451613 L193,10 L160.774194,10 L160.774194,38.6451613 L175.096774,38.6451613 L175.096774,51.4316452 C172.592113,52.0833226 170.629919,54.0437258 169.980032,56.5483871 L161.880613,56.5483871 L152.929,38.6451613 L148.555242,38.6451613 L142.987339,67.4174355 C141.182694,67.3350806 139.354774,67.2903226 137.5,67.2903226 C133.414484,67.2903226 129.448919,67.498 125.635532,67.8865 L120.776597,56.5483871 L105.019968,56.5483871 C104.36829,54.0437258 102.407887,52.0815323 99.9032258,51.4316452 L99.9032258,38.6451613 L114.225806,38.6451613 L114.225806,10 L82,10 L82,38.6451613 L96.3225806,38.6451613 L96.3225806,51.4316452 C93.2414355,52.2319194 90.9516129,55.0105 90.9516129,58.3387097 C90.9516129,62.2881613 94.1634516,65.5 98.1129032,65.5 C101.441113,65.5 104.219694,63.2101774 105.019968,60.1290323 L118.416952,60.1290323 L121.931355,68.3287097 C98.6231452,71.5119032 82,81.7131613 82,94.1451613 C82,109.203565 106.378823,121 137.5,121 C168.621177,121 193,109.203565 193,94.1451613 C193,80.5888387 173.238419,69.6804032 146.591258,67.6394355 L151.289065,43.3698226 L159.667774,60.1290323 L169.980032,60.1290323 C170.780306,63.2101774 173.558887,65.5 176.887097,65.5 C180.836548,65.5 184.048387,62.2881613 184.048387,58.3387097 C184.048387,55.0105 181.758565,52.2319194 178.677419,51.4316452 L178.677419,38.6451613 L193,38.6451613 Z M85.5806452,35.0645161 L85.5806452,13.5806452 L110.645161,13.5806452 L110.645161,35.0645161 L85.5806452,35.0645161 Z M98.1129032,61.9193548 C96.1381774,61.9193548 94.5322581,60.3134355 94.5322581,58.3387097 C94.5322581,56.3639839 96.1381774,54.7580645 98.1129032,54.7580645 C100.087629,54.7580645 101.693548,56.3639839 101.693548,58.3387097 C101.693548,60.3134355 100.087629,61.9193548 98.1129032,61.9193548 Z M137.5,70.8709677 C139.118452,70.8709677 140.697516,71.0392581 142.224661,71.3543548 L140.862226,78.3903226 C139.77729,78.159371 138.652968,78.0322581 137.5,78.0322581 C135.047258,78.0322581 132.730581,78.598 130.648435,79.5826774 L127.828677,73.0032419 C130.779129,71.6479677 134.046468,70.8709677 137.5,70.8709677 Z M140.181903,81.9083065 L137.813306,94.1451613 L136.8895,94.1451613 L132.05921,82.8732903 C133.708097,82.0748065 135.548548,81.6129032 137.5,81.6129032 C138.420226,81.6129032 139.317177,81.7203226 140.181903,81.9083065 Z M127.569081,81.4822097 C123.812984,84.4344516 121.387097,89.0069355 121.387097,94.1451613 C121.387097,97.9442258 122.715516,101.433565 124.922984,104.190661 L119.845629,109.268016 C116.350919,105.196823 114.225806,99.9189516 114.225806,94.1451613 C114.225806,86.0475323 118.388306,78.9113065 124.6795,74.7398548 L127.569081,81.4822097 Z M85.5806452,94.1451613 C85.5806452,83.8633387 101.376661,74.8830806 122.455919,71.9111452 C115.334016,76.7468065 110.645161,84.9070968 110.645161,94.1451613 C110.645161,103.383226 115.334016,111.543516 122.455919,116.379177 C101.376661,113.407242 85.5806452,104.426984 85.5806452,94.1451613 Z M135.709677,117.328048 C130.637694,116.939548 126.022242,114.927226 122.377145,111.799532 L127.4545,106.722177 C129.772968,108.576952 132.607048,109.806903 135.709677,110.152435 L135.709677,117.328048 Z M189.419355,94.1451613 C189.419355,104.426984 173.623339,113.407242 152.544081,116.379177 C159.665984,111.543516 164.354839,103.383226 164.354839,94.1451613 C164.354839,84.9070968 159.665984,76.7468065 152.544081,71.9111452 C173.623339,74.8830806 189.419355,83.8633387 189.419355,94.1451613 Z M139.290323,117.328048 L139.290323,110.125581 C142.351774,109.783629 145.189435,108.580532 147.532968,106.709645 L152.622855,111.799532 C148.977758,114.927226 144.360516,116.939548 139.290323,117.328048 Z M160.774194,94.1451613 C160.774194,99.9189516 158.649081,105.196823 155.154371,109.268016 L150.073435,104.187081 C150.963226,103.07171 151.733065,101.841758 152.314919,100.486484 L149.024306,99.0775 C147.046,103.694742 142.523645,106.677419 137.5,106.677419 C130.591145,106.677419 124.967742,101.054016 124.967742,94.1451613 C124.967742,90.4964839 126.545016,87.2166129 129.042516,84.9232097 L134.529855,97.7258065 L140.767339,97.7258065 L143.579935,83.1955484 C147.423758,85.3385645 150.032258,89.4419839 150.032258,94.1451613 C150.032258,94.6482419 150.001823,95.1441613 149.944532,95.631129 L153.500113,96.0536452 C153.575306,95.4306129 153.612903,94.7914677 153.612903,94.1451613 C153.612903,87.6856774 149.785194,82.1177742 144.285323,79.5504516 L145.672823,72.3802097 C154.479419,75.7012581 160.774194,84.1909677 160.774194,94.1451613 Z M180.467742,58.3387097 C180.467742,60.3134355 178.861823,61.9193548 176.887097,61.9193548 C174.912371,61.9193548 173.306452,60.3134355 173.306452,58.3387097 C173.306452,56.3639839 174.912371,54.7580645 176.887097,54.7580645 C178.861823,54.7580645 180.467742,56.3639839 180.467742,58.3387097 Z M164.354839,35.0645161 L164.354839,13.5806452 L189.419355,13.5806452 L189.419355,35.0645161 L164.354839,35.0645161 Z M89.1612903,17.1612903 L92.7419355,17.1612903 L92.7419355,20.7419355 L89.1612903,20.7419355 L89.1612903,17.1612903 Z M96.3225806,17.1612903 L107.064516,17.1612903 L107.064516,20.7419355 L96.3225806,20.7419355 L96.3225806,17.1612903 Z M103.483871,27.9032258 L107.064516,27.9032258 L107.064516,31.483871 L103.483871,31.483871 L103.483871,27.9032258 Z M89.1612903,27.9032258 L99.9032258,27.9032258 L99.9032258,31.483871 L89.1612903,31.483871 L89.1612903,27.9032258 Z M167.935484,17.1612903 L167.935484,20.7419355 L171.516129,20.7419355 L171.516129,17.1612903 L167.935484,17.1612903 Z M175.096774,17.1612903 L175.096774,20.7419355 L185.83871,20.7419355 L185.83871,17.1612903 L175.096774,17.1612903 Z M182.258065,27.9032258 L182.258065,31.483871 L185.83871,31.483871 L185.83871,27.9032258 L182.258065,27.9032258 Z M167.935484,27.9032258 L167.935484,31.483871 L178.677419,31.483871 L178.677419,27.9032258 L167.935484,27.9032258 Z" id="pie-chart-2" fill="#FC384C" fill-rule="nonzero"></path>
            </g>
        </g>
    </g>
</svg>